<mxfile host="app.diagrams.net" modified="2021-03-21T10:10:31.693Z" agent="5.0 (Windows NT 10.0; Win64; x64) AppleWebKit/537.36 (KHTML, like Gecko) Chrome/89.0.4389.90 Safari/537.36" etag="YCxgxcgsi6SMsgOyRl8N" version="14.3.2" type="github">
  <diagram id="AsEQHJRHFvDNdhf22Bxb" name="Page-1">
    <mxGraphModel dx="1038" dy="548" grid="1" gridSize="10" guides="1" tooltips="1" connect="1" arrows="1" fold="1" page="1" pageScale="1" pageWidth="827" pageHeight="1169" math="0" shadow="0">
      <root>
        <mxCell id="0" />
        <mxCell id="1" parent="0" />
        <mxCell id="KaeLfl71wmsGlNCtkgR9-1" value="SpringApplication.run(Main.class,args)" style="rounded=0;whiteSpace=wrap;html=1;" vertex="1" parent="1">
          <mxGeometry x="40" y="30" width="230" height="60" as="geometry" />
        </mxCell>
        <mxCell id="KaeLfl71wmsGlNCtkgR9-2" value="new SpringApplication（）构造方法" style="rounded=0;whiteSpace=wrap;html=1;" vertex="1" parent="1">
          <mxGeometry x="310" y="30" width="240" height="60" as="geometry" />
        </mxCell>
        <mxCell id="KaeLfl71wmsGlNCtkgR9-3" value="run方法" style="rounded=0;whiteSpace=wrap;html=1;" vertex="1" parent="1">
          <mxGeometry x="380" y="200" width="120" height="60" as="geometry" />
        </mxCell>
        <mxCell id="KaeLfl71wmsGlNCtkgR9-4" value="加载初始化器" style="rounded=0;whiteSpace=wrap;html=1;" vertex="1" parent="1">
          <mxGeometry x="680" y="100" width="120" height="60" as="geometry" />
        </mxCell>
        <mxCell id="KaeLfl71wmsGlNCtkgR9-5" value="加载初始化的监听器" style="rounded=0;whiteSpace=wrap;html=1;" vertex="1" parent="1">
          <mxGeometry x="680" y="180" width="120" height="60" as="geometry" />
        </mxCell>
        <mxCell id="KaeLfl71wmsGlNCtkgR9-6" value="加载主类" style="rounded=0;whiteSpace=wrap;html=1;" vertex="1" parent="1">
          <mxGeometry x="680" y="260" width="120" height="60" as="geometry" />
        </mxCell>
        <mxCell id="KaeLfl71wmsGlNCtkgR9-7" value="判断当前环境并设置" style="rounded=0;whiteSpace=wrap;html=1;" vertex="1" parent="1">
          <mxGeometry x="680" y="20" width="120" height="60" as="geometry" />
        </mxCell>
        <mxCell id="KaeLfl71wmsGlNCtkgR9-8" value="" style="endArrow=classic;html=1;exitX=1;exitY=0.5;exitDx=0;exitDy=0;entryX=0;entryY=0.5;entryDx=0;entryDy=0;" edge="1" parent="1" source="KaeLfl71wmsGlNCtkgR9-1" target="KaeLfl71wmsGlNCtkgR9-2">
          <mxGeometry width="50" height="50" relative="1" as="geometry">
            <mxPoint x="390" y="290" as="sourcePoint" />
            <mxPoint x="440" y="240" as="targetPoint" />
          </mxGeometry>
        </mxCell>
        <mxCell id="KaeLfl71wmsGlNCtkgR9-9" value="" style="endArrow=classic;html=1;exitX=1;exitY=0.5;exitDx=0;exitDy=0;entryX=0;entryY=0.5;entryDx=0;entryDy=0;" edge="1" parent="1" source="KaeLfl71wmsGlNCtkgR9-2" target="KaeLfl71wmsGlNCtkgR9-7">
          <mxGeometry width="50" height="50" relative="1" as="geometry">
            <mxPoint x="280" y="70" as="sourcePoint" />
            <mxPoint x="320" y="70" as="targetPoint" />
          </mxGeometry>
        </mxCell>
        <mxCell id="KaeLfl71wmsGlNCtkgR9-10" value="" style="endArrow=classic;html=1;entryX=0;entryY=0.5;entryDx=0;entryDy=0;" edge="1" parent="1" target="KaeLfl71wmsGlNCtkgR9-4">
          <mxGeometry width="50" height="50" relative="1" as="geometry">
            <mxPoint x="550" y="60" as="sourcePoint" />
            <mxPoint x="690" y="60" as="targetPoint" />
          </mxGeometry>
        </mxCell>
        <mxCell id="KaeLfl71wmsGlNCtkgR9-11" value="" style="endArrow=classic;html=1;entryX=0;entryY=0.5;entryDx=0;entryDy=0;exitX=1;exitY=0.667;exitDx=0;exitDy=0;exitPerimeter=0;" edge="1" parent="1" source="KaeLfl71wmsGlNCtkgR9-2" target="KaeLfl71wmsGlNCtkgR9-5">
          <mxGeometry width="50" height="50" relative="1" as="geometry">
            <mxPoint x="560" y="70" as="sourcePoint" />
            <mxPoint x="690" y="140" as="targetPoint" />
          </mxGeometry>
        </mxCell>
        <mxCell id="KaeLfl71wmsGlNCtkgR9-12" value="" style="endArrow=classic;html=1;entryX=0;entryY=0.5;entryDx=0;entryDy=0;exitX=1;exitY=0.63;exitDx=0;exitDy=0;exitPerimeter=0;" edge="1" parent="1" source="KaeLfl71wmsGlNCtkgR9-2" target="KaeLfl71wmsGlNCtkgR9-6">
          <mxGeometry width="50" height="50" relative="1" as="geometry">
            <mxPoint x="560" y="80.01999999999998" as="sourcePoint" />
            <mxPoint x="690" y="220" as="targetPoint" />
          </mxGeometry>
        </mxCell>
        <mxCell id="KaeLfl71wmsGlNCtkgR9-13" value="初始化操作" style="rounded=0;whiteSpace=wrap;html=1;" vertex="1" parent="1">
          <mxGeometry x="580" width="60" height="230" as="geometry" />
        </mxCell>
        <mxCell id="KaeLfl71wmsGlNCtkgR9-14" value="" style="endArrow=classic;html=1;exitX=0.533;exitY=1.03;exitDx=0;exitDy=0;exitPerimeter=0;" edge="1" parent="1" source="KaeLfl71wmsGlNCtkgR9-2">
          <mxGeometry width="50" height="50" relative="1" as="geometry">
            <mxPoint x="390" y="290" as="sourcePoint" />
            <mxPoint x="440" y="200" as="targetPoint" />
          </mxGeometry>
        </mxCell>
        <mxCell id="KaeLfl71wmsGlNCtkgR9-15" value="创建计时器并启动" style="rounded=0;whiteSpace=wrap;html=1;" vertex="1" parent="1">
          <mxGeometry x="380" y="320" width="120" height="60" as="geometry" />
        </mxCell>
        <mxCell id="KaeLfl71wmsGlNCtkgR9-16" value="加载监听器并启动" style="rounded=0;whiteSpace=wrap;html=1;" vertex="1" parent="1">
          <mxGeometry x="380" y="400" width="120" height="60" as="geometry" />
        </mxCell>
        <mxCell id="KaeLfl71wmsGlNCtkgR9-17" value="通过spi的方式来查找" style="rounded=0;whiteSpace=wrap;html=1;" vertex="1" parent="1">
          <mxGeometry x="560" y="400" width="120" height="60" as="geometry" />
        </mxCell>
        <mxCell id="KaeLfl71wmsGlNCtkgR9-18" value="设置上下文环境" style="rounded=0;whiteSpace=wrap;html=1;" vertex="1" parent="1">
          <mxGeometry x="380" y="490" width="120" height="60" as="geometry" />
        </mxCell>
        <mxCell id="KaeLfl71wmsGlNCtkgR9-19" value="加载系统属性" style="rounded=0;whiteSpace=wrap;html=1;" vertex="1" parent="1">
          <mxGeometry x="95" y="510" width="120" height="60" as="geometry" />
        </mxCell>
        <mxCell id="KaeLfl71wmsGlNCtkgR9-20" value="启动环境的监听器" style="rounded=0;whiteSpace=wrap;html=1;" vertex="1" parent="1">
          <mxGeometry x="95" y="590" width="120" height="60" as="geometry" />
        </mxCell>
        <mxCell id="KaeLfl71wmsGlNCtkgR9-21" value="创建环境对象" style="rounded=0;whiteSpace=wrap;html=1;" vertex="1" parent="1">
          <mxGeometry x="95" y="440" width="120" height="60" as="geometry" />
        </mxCell>
        <mxCell id="KaeLfl71wmsGlNCtkgR9-22" value="打印banner" style="rounded=0;whiteSpace=wrap;html=1;" vertex="1" parent="1">
          <mxGeometry x="380" y="584.5" width="120" height="60" as="geometry" />
        </mxCell>
      </root>
    </mxGraphModel>
  </diagram>
</mxfile>
